<svg width="20" height="17" viewBox="0 0 20 17" fill="none" xmlns="http://www.w3.org/2000/svg">
<path d="M9.9375 0.191406C10.2567 -0.0751681 10.7625 -0.0621131 11.0674 0.220703L18.7842 7.38867C18.9884 7.51138 19.1259 7.73273 19.126 7.98828C19.126 8.14697 19.0712 8.29161 18.9824 8.40918C18.9495 8.50501 18.8958 8.59746 18.8154 8.67773L11.3867 16.0947C11.0909 16.3898 10.5839 16.4213 10.2539 16.165C9.92395 15.9087 9.89593 15.4613 10.1914 15.166L16.6768 8.69043H0.702148C0.314491 8.69043 0 8.37594 0 7.98828C8.51567e-05 7.6007 0.314544 7.28613 0.702148 7.28613H16.4775L9.91113 1.1875C9.60624 0.904322 9.61813 0.458155 9.9375 0.191406Z" fill="#252525" fill-opacity="0.9"/>
</svg>
